####
#
# OBJ File Generated by Meshlab
#
####
# Object SLS_backlights.obj
#
# Vertices: 72
# Faces: 116
#
####
vn -0.142457 0.090939 0.132845
v 16.106318 391.080963 76.124763
vn -1.071514 0.684015 0.999216
v 15.897869 390.526855 76.280548
vn -0.142457 0.090940 0.132845
v 14.007016 390.526855 74.252884
vn -1.686860 1.985595 0.393418
v 51.119022 430.912994 68.035637
vn -0.357825 0.288390 0.497559
v 17.921900 391.550720 77.369804
vn -0.086048 0.077983 0.068318
v 37.563087 416.555481 77.001945
vn -0.734958 0.874002 0.317118
v 39.470909 418.568115 77.001945
vn -1.185375 1.409630 0.511462
v 39.837761 418.743134 77.369804
vn 1.670162 -0.000032 2.644124
v 41.304615 420.276886 76.443283
vn 0.001416 -0.000000 0.002242
v 47.557781 427.004272 72.493546
vn -1.682939 1.530251 0.732340
v 25.431313 411.064636 64.909805
vn -0.918362 0.691492 0.372378
v 21.434822 406.700134 64.845535
vn -1.142517 1.140419 0.605525
v 25.656092 411.512939 64.489609
vn -1.598336 0.834976 -0.224563
v 16.779930 398.623505 67.946098
vn -1.078399 0.563359 -0.151513
v 16.808594 398.489319 67.243149
vn -0.104477 0.122978 0.024366
v 31.907972 413.546265 73.314194
vn -1.559171 1.400973 0.973748
v 22.762621 405.742279 69.898529
vn -1.581148 0.991008 0.900167
v 14.344243 391.080963 74.235199
vn -1.534387 1.912202 0.544568
v 26.174818 411.809509 64.909805
vn -0.423000 0.422213 0.224168
v 31.547359 414.881439 69.261803
vn -1.125546 1.023432 0.489772
v 21.543556 406.621704 65.259338
vn -0.096763 0.072861 0.039240
v 15.341727 396.226105 69.268555
vn -1.694217 1.275702 0.687024
v 18.730169 402.050842 66.808861
vn -0.342824 0.258138 0.139018
v 14.204532 394.042511 70.518829
vn -0.369313 0.277383 0.136489
v 13.554461 393.153809 70.565948
vn -1.634359 1.227532 0.604019
v 13.974463 393.581940 70.832314
vn -1.439924 1.712317 0.621265
v 39.118504 418.271759 77.001945
vn -0.009655 0.011480 0.004165
v 46.727440 426.290222 72.537086
vn -1.211246 0.976210 1.684280
v 18.958479 398.662537 73.993240
vn -0.355606 0.286602 0.494482
v 18.007513 392.138092 77.090927
vn -0.013521 0.018057 -0.002640
v 29.035089 414.104645 64.909805
vn -0.631420 0.843212 -0.123251
v 52.648743 431.645386 63.938412
vn -0.257006 0.343209 -0.050166
v 51.340897 430.765472 64.618706
vn -0.950055 1.268717 -0.185444
v 50.949158 430.912994 67.634903
vn -0.663256 0.885721 -0.129463
v 52.070141 431.772797 67.774300
vn -1.085918 1.353316 0.385319
v 51.025486 430.912994 67.850014
vn 0.135940 0.096619 0.161780
v 185.856232 391.550720 77.369804
vn 0.590792 0.419905 0.703091
v 187.880249 390.526855 76.280548
vn 0.163040 0.115888 0.194029
v 187.671814 391.080963 76.124763
vn 1.582378 1.862615 0.369059
v 156.220337 427.004272 72.493546
vn 1.470498 1.748592 0.634535
v 164.307220 418.568115 77.001945
vn 0.217013 0.258054 0.093643
v 163.940369 418.743134 77.369804
vn 1.688691 2.008170 0.728638
v 157.050690 426.290222 72.537086
vn -1.670095 0.000055 2.644166
v 162.473511 420.276886 76.443283
vn 0.049130 0.044672 0.021379
v 182.343307 406.700134 64.845535
vn 1.582029 1.188216 0.584646
v 189.573593 394.042511 70.518829
vn 0.500902 0.499989 0.265484
v 178.346817 411.064636 64.909805
vn 0.438409 0.437610 0.232361
v 177.603302 411.809509 64.909805
vn 1.346121 0.703217 -0.189141
v 186.969528 398.489319 67.243149
vn 2.681656 1.400955 -0.376658
v 188.436401 396.226105 69.268555
vn 0.268477 0.316019 0.062612
v 152.659103 430.912994 68.035637
vn 0.232593 0.230301 0.096577
v 181.015503 405.742279 69.898529
vn 1.101341 0.690307 0.627032
v 189.803665 393.581940 70.832314
vn 1.186632 0.743766 0.675591
v 190.223663 393.153809 70.565948
vn 0.721474 0.452184 0.410737
v 189.771103 390.526855 74.252884
vn 1.581165 0.990996 0.900161
v 189.433884 391.080963 74.235199
vn 1.115410 0.792814 1.327425
v 185.770615 392.138092 77.090927
vn 0.061560 0.076717 0.021850
v 174.743042 414.104645 64.909805
vn 1.043008 1.313526 0.525593
v 172.230759 414.881439 69.261803
vn 2.620260 1.368867 -0.368059
v 186.998199 398.623505 67.946098
vn 0.061396 0.032074 -0.008624
v 185.047958 402.050842 66.808861
vn 0.973717 0.733183 0.394855
v 182.234573 406.621704 65.259338
vn 0.286315 0.340478 0.123532
v 171.870148 413.546265 73.314194
vn 0.092801 0.074794 0.129043
v 166.215042 416.555481 77.001945
vn 0.007029 0.006370 0.005580
v 184.819641 398.662537 73.993240
vn 0.079022 0.071616 0.062737
v 164.659622 418.271759 77.001945
vn 0.068766 0.091831 -0.013419
v 178.122040 411.512939 64.489609
vn 0.631420 0.843213 -0.123250
v 151.129379 431.645386 63.938412
vn 0.257006 0.343210 -0.050166
v 152.437225 430.765472 64.618706
vn 0.096544 0.120318 0.034255
v 151.707977 431.772797 67.774300
vn 1.085911 1.353314 0.385297
v 152.752640 430.912994 67.850014
vn 0.736926 0.918393 0.261472
v 152.828964 430.912994 67.634903
# 72 vertices, 0 vertices normals

f 18//18 3//3 1//1
f 2//2 1//1 3//3
f 2//2 5//5 1//1
f 30//30 1//1 5//5
f 28//28 10//10 4//4
f 35//35 4//4 10//10
f 5//5 8//8 30//30
f 6//6 30//30 8//8
f 27//27 6//6 8//8
f 27//27 8//8 7//7
f 28//28 7//7 8//8
f 10//10 28//28 8//8
f 8//8 9//9 10//10
f 13//13 12//12 11//11
f 21//21 11//11 12//12
f 17//17 24//24 29//29
f 26//26 29//29 24//24
f 21//21 12//12 23//23
f 19//19 13//13 11//11
f 36//36 4//4 35//35
f 12//12 15//15 23//23
f 14//14 23//23 15//15
f 25//25 14//14 15//15
f 22//22 14//14 25//25
f 16//16 28//28 4//4
f 20//20 17//17 16//16
f 16//16 17//17 29//29
f 25//25 3//3 26//26
f 18//18 26//26 3//3
f 1//1 30//30 29//29
f 13//13 19//19 31//31
f 20//20 16//16 36//36
f 4//4 36//36 16//16
f 31//31 34//34 33//33
f 19//19 20//20 31//31
f 34//34 31//31 20//20
f 36//36 34//34 20//20
f 19//19 11//11 20//20
f 17//17 20//20 11//11
f 11//11 21//21 17//17
f 24//24 22//22 25//25
f 23//23 14//14 22//22
f 21//21 23//23 17//17
f 22//22 17//17 23//23
f 24//24 17//17 22//22
f 24//24 25//25 26//26
f 29//29 26//26 18//18
f 29//29 18//18 1//1
f 16//16 27//27 28//28
f 7//7 28//28 27//27
f 29//29 30//30 6//6
f 16//16 29//29 27//27
f 6//6 27//27 29//29
f 13//13 31//31 32//32
f 33//33 32//32 31//31
f 35//35 32//32 33//33
f 33//33 34//34 35//35
f 34//34 36//36 35//35
f 39//39 55//55 56//56
f 55//55 39//39 38//38
f 39//39 37//37 38//38
f 37//37 39//39 57//57
f 51//51 40//40 43//43
f 40//40 51//51 70//70
f 57//57 42//42 37//37
f 42//42 57//57 64//64
f 42//42 64//64 66//66
f 41//41 42//42 66//66
f 42//42 41//41 43//43
f 42//42 43//43 40//40
f 40//40 44//44 42//42
f 47//47 45//45 67//67
f 45//45 47//47 62//62
f 65//65 46//46 52//52
f 46//46 65//65 53//53
f 61//61 45//45 62//62
f 47//47 67//67 48//48
f 70//70 51//51 71//71
f 61//61 49//49 45//45
f 49//49 61//61 60//60
f 49//49 60//60 54//54
f 54//54 60//60 50//50
f 51//51 43//43 63//63
f 63//63 52//52 59//59
f 65//65 52//52 63//63
f 53//53 55//55 54//54
f 55//55 53//53 56//56
f 65//65 57//57 39//39
f 58//58 48//48 67//67
f 71//71 63//63 59//59
f 63//63 71//71 51//51
f 69//69 72//72 58//58
f 58//58 59//59 48//48
f 59//59 58//58 72//72
f 59//59 72//72 71//71
f 59//59 47//47 48//48
f 47//47 59//59 52//52
f 52//52 62//62 47//47
f 54//54 50//50 46//46
f 50//50 60//60 61//61
f 52//52 61//61 62//62
f 61//61 52//52 50//50
f 50//50 52//52 46//46
f 53//53 54//54 46//46
f 56//56 53//53 65//65
f 39//39 56//56 65//65
f 43//43 66//66 63//63
f 66//66 43//43 41//41
f 64//64 57//57 65//65
f 66//66 65//65 63//63
f 65//65 66//66 64//64
f 68//68 58//58 67//67
f 58//58 68//68 69//69
f 69//69 68//68 70//70
f 70//70 72//72 69//69
f 70//70 71//71 72//72
# 116 faces, 0 coords texture

# End of File
