####
#
# OBJ File Generated by Meshlab
#
####
# Object SLS_windows.obj
#
# Vertices: 86
# Faces: 102
#
####
vn 1.444450 0.000000 0.850155
v 181.633224 303.134796 83.570969
vn 0.387249 -0.011627 0.170008
v 164.262497 248.633148 109.728691
vn 0.047939 -0.001995 0.041372
v 165.306076 306.535889 111.311516
vn 1.964737 -0.053924 1.326483
v 166.791779 243.239426 106.537834
vn 0.409388 -0.011236 0.276397
v 181.633224 219.027145 83.570969
vn 2.637620 -0.088258 0.705404
v 164.575699 301.288391 113.385963
vn 0.042086 -0.001408 0.011255
v 163.288177 254.553619 112.352913
vn 1.462221 0.141398 0.872500
v 164.575699 306.535889 112.535553
vn 0.814038 -0.576071 1.135776
v 163.533142 217.860535 99.846855
vn 0.380221 -0.074208 0.343789
v 156.914886 238.831390 115.226837
vn 1.784361 -0.348256 1.613386
v 162.134476 237.624130 109.193520
vn 0.762815 -0.601185 0.951062
v 169.539810 221.964310 97.623184
vn 0.526023 -0.415327 0.656910
v 171.415848 202.114426 83.570969
vn 1.067878 -0.843155 1.333592
v 176.113220 208.063766 83.570969
vn 0.013029 -0.565028 1.063443
v 101.889061 230.116760 116.669807
vn 0.015665 -0.679345 1.278599
v 119.898605 230.116760 116.449165
vn 0.440206 -0.884807 1.496659
v 149.283096 235.994980 115.794693
vn 0.032810 -0.238099 0.412156
v 133.383011 203.235794 99.846855
vn 0.281379 -0.444519 0.727191
v 150.602646 209.675568 99.846855
vn 0.156713 -0.633265 0.952468
v 133.383011 178.755905 83.570969
vn 0.105996 -0.283428 0.480813
v 135.816040 232.310150 116.449165
vn 0.366855 -0.579553 0.871681
v 150.602646 185.195679 83.570969
vn 0.180384 -0.284968 0.428609
v 163.533142 193.380646 83.570969
vn 0.000000 -0.632544 0.951383
v 101.889061 174.283783 83.570969
vn 0.000000 -0.869691 1.308067
v 115.311493 174.283783 83.570969
vn 0.000000 -0.632544 0.951383
v 115.311493 198.763672 99.846855
vn -0.156713 -0.633266 0.952469
v 70.395119 178.755905 83.570969
vn -0.272110 -0.546936 0.925147
v 46.863235 238.831390 115.226837
vn -0.440206 -0.884807 1.496659
v 54.495029 235.994980 115.794693
vn -1.067877 -0.843156 1.333591
v 27.664906 208.063766 83.570969
vn -0.526022 -0.415328 0.656910
v 32.362286 202.114426 83.570969
vn -0.094870 -0.688473 1.191767
v 67.962090 232.310150 116.449165
vn -0.088356 -0.641200 1.109936
v 83.879517 230.116760 116.449165
vn -1.784361 -0.348256 1.613386
v 41.643642 237.624130 109.193520
vn -0.128074 -0.342464 0.515086
v 70.395119 203.235794 99.846855
vn -0.250432 -0.669643 1.007182
v 53.175480 185.195679 83.570969
vn -0.145443 -0.587723 1.069717
v 88.466629 198.763672 99.846855
vn -0.180384 -0.284968 0.428609
v 40.244987 193.380646 83.570969
vn -0.491820 -0.776971 1.168609
v 53.175480 209.675568 99.846855
vn -0.762814 -0.601186 0.951062
v 34.238308 221.964310 97.623184
vn -0.823151 -0.648739 1.026289
v 40.244987 217.860535 99.846855
vn 0.000000 -0.632544 0.951383
v 88.466629 174.283783 83.570969
vn 0.000000 -0.632544 0.951383
v 101.889061 198.763672 99.846855
vn -1.444450 0.000000 0.850155
v 22.144894 303.134796 83.570969
vn -0.303765 0.000000 0.178786
v 22.144894 219.027145 83.570969
vn -1.895145 -0.078864 1.635517
v 39.515621 248.633148 109.728691
vn -1.964736 -0.053924 1.326484
v 36.986355 243.239426 106.537834
vn -0.228931 -0.006283 0.154562
v 38.472046 306.535889 111.311516
vn -0.042086 -0.001408 0.011255
v 40.489956 254.553619 112.352913
vn -1.462221 0.141398 0.872500
v 39.202423 306.535889 112.535553
vn -0.214602 0.020752 0.128052
v 39.202423 301.288391 113.385963
vn 0.467520 0.338106 0.666987
v 170.445068 345.191925 96.730339
vn 0.669841 0.484423 0.955627
v 164.510849 330.811035 108.179802
vn 0.666390 0.481927 0.950703
v 155.817841 358.211212 100.383530
vn 0.257190 0.335419 0.594180
v 144.205612 365.771332 101.142120
vn 0.200178 0.261066 0.462468
v 152.779221 344.065887 109.683922
vn 0.436613 0.296297 0.692235
v 170.445068 359.910583 90.430336
vn 0.781290 0.530204 1.238709
v 161.900986 367.515411 92.564247
vn 0.018007 0.216209 0.436195
v 147.080673 328.442871 120.431335
vn 0.885027 0.712102 0.627609
v 159.059052 329.661804 117.171638
vn 0.036594 0.434514 0.806507
v 138.271393 344.993011 112.591583
vn 0.019635 0.239726 0.540605
v 124.484871 328.442871 120.431335
vn 0.163550 0.934901 1.429044
v 144.205612 375.401215 94.842117
vn 0.000000 0.286443 0.543103
v 101.889061 379.497894 94.842117
vn 0.000000 0.802935 1.522385
v 120.787796 379.497894 94.842117
vn 0.000000 0.586413 1.457231
v 101.889061 328.442871 120.431335
vn 0.035023 0.434659 1.080125
v 101.889061 354.182159 110.073433
vn 0.031978 0.385495 0.715388
v 120.080231 346.720520 112.486267
vn 0.056855 0.685393 1.271927
v 123.047340 366.305664 101.799950
vn 0.000000 0.284487 0.706947
v 79.293251 328.442871 120.431335
vn -0.049935 0.619722 1.540003
v 101.889061 348.447998 112.380951
vn -0.034695 0.418246 0.776165
v 101.889061 366.840027 102.457779
vn 0.000000 0.376207 0.713299
v 80.730789 366.305664 101.799950
vn -0.060849 0.722520 1.341080
v 83.697899 346.720520 112.486267
vn -0.378890 0.984702 1.576499
v 50.998905 344.065887 109.683922
vn -0.112834 0.293245 0.469482
v 44.719078 329.661804 117.171638
vn -0.040134 0.229418 0.350677
v 82.990334 379.497894 94.842117
vn -0.163550 0.934901 1.429044
v 59.572514 375.401215 94.842117
vn -0.095824 0.547759 0.837278
v 59.572514 365.771332 101.142120
vn -0.077873 0.935034 1.886403
v 65.506729 344.993011 112.591583
vn -0.018007 0.216209 0.436195
v 56.697449 328.442871 120.431335
vn -0.436612 0.296297 0.692235
v 33.333050 359.910583 90.430336
vn -0.781289 0.530204 1.238710
v 41.877140 367.515411 92.564247
vn -0.650706 0.848631 1.503315
v 47.960281 358.211212 100.383530
vn -0.467520 0.338106 0.666987
v 33.333050 345.191925 96.730339
vn -0.669841 0.484423 0.955627
v 39.267269 330.811035 108.179802
# 86 vertices, 0 vertices normals

f 3//3 5//5 1//1
f 7//7 2//2 3//3
f 3//3 2//2 4//4
f 3//3 4//4 5//5
f 6//6 7//7 3//3
f 6//6 3//3 8//8
f 10//10 9//9 12//12
f 10//10 12//12 11//11
f 12//12 9//9 13//13
f 12//12 13//13 14//14
f 9//9 23//23 13//13
f 15//15 26//26 16//16
f 10//10 17//17 19//19
f 15//15 43//43 26//26
f 21//21 16//16 18//18
f 10//10 19//19 9//9
f 17//17 21//21 19//19
f 20//20 26//26 25//25
f 26//26 20//20 18//18
f 21//21 18//18 19//19
f 23//23 19//19 22//22
f 19//19 23//23 9//9
f 16//16 26//26 18//18
f 22//22 18//18 20//20
f 18//18 22//22 19//19
f 26//26 24//24 25//25
f 24//24 26//26 43//43
f 29//29 39//39 32//32
f 15//15 37//37 43//43
f 37//37 27//27 42//42
f 27//27 37//37 35//35
f 32//32 39//39 35//35
f 28//28 39//39 29//29
f 41//41 31//31 38//38
f 28//28 40//40 41//41
f 40//40 30//30 31//31
f 32//32 35//35 33//33
f 28//28 34//34 40//40
f 35//35 36//36 27//27
f 36//36 35//35 39//39
f 33//33 35//35 37//37
f 39//39 38//38 36//36
f 38//38 39//39 41//41
f 33//33 37//37 15//15
f 40//40 31//31 41//41
f 43//43 42//42 24//24
f 42//42 43//43 37//37
f 28//28 41//41 39//39
f 44//44 45//45 48//48
f 48//48 46//46 49//49
f 47//47 46//46 48//48
f 45//45 47//47 48//48
f 48//48 49//49 51//51
f 50//50 48//48 51//51
f 52//52 56//56 53//53
f 56//56 52//52 54//54
f 55//55 56//56 54//54
f 58//58 55//55 54//54
f 55//55 61//61 56//56
f 57//57 54//54 52//52
f 54//54 57//57 58//58
f 63//63 55//55 58//58
f 68//68 62//62 59//59
f 68//68 59//59 61//61
f 60//60 53//53 56//56
f 69//69 61//61 55//55
f 69//69 68//68 61//61
f 71//71 62//62 68//68
f 64//64 72//72 69//69
f 61//61 60//60 56//56
f 61//61 59//59 60//60
f 65//65 55//55 63//63
f 64//64 69//69 65//65
f 71//71 66//66 62//62
f 65//65 69//69 55//55
f 72//72 67//67 68//68
f 67//67 71//71 68//68
f 72//72 68//68 69//69
f 71//71 70//70 66//66
f 67//67 74//74 71//71
f 72//72 73//73 74//74
f 77//77 73//73 64//64
f 77//77 79//79 73//73
f 72//72 74//74 67//67
f 71//71 74//74 70//70
f 73//73 80//80 74//74
f 76//76 75//75 86//86
f 64//64 73//73 72//72
f 74//74 81//81 70//70
f 80//80 75//75 76//76
f 80//80 76//76 81//81
f 77//77 78//78 79//79
f 74//74 80//80 81//81
f 78//78 83//83 79//79
f 79//79 75//75 80//80
f 84//84 82//82 85//85
f 82//82 84//84 83//83
f 73//73 79//79 80//80
f 83//83 84//84 79//79
f 79//79 84//84 75//75
f 75//75 85//85 86//86
f 85//85 75//75 84//84
# 102 faces, 0 coords texture

# End of File
